<?xml version="1.0" encoding="UTF-8" standalone="no"?>
<!DOCTYPE svg PUBLIC "-//W3C//DTD SVG 1.1//EN"
 "http://www.w3.org/Graphics/SVG/1.1/DTD/svg11.dtd">
<!-- Generated by graphviz version 2.47.3 (20210619.1520)
 -->
<!-- Title: dependencies Pages: 1 -->
<svg width="1085pt" height="174pt"
 viewBox="0.00 0.00 1085.00 173.80" xmlns="http://www.w3.org/2000/svg" xmlns:xlink="http://www.w3.org/1999/xlink">
<g id="graph0" class="graph" transform="scale(1 1) rotate(0) translate(4 169.8)">
<title>dependencies</title>
<polygon fill="white" stroke="transparent" points="-4,4 -4,-169.8 1081,-169.8 1081,4 -4,4"/>
<text text-anchor="middle" x="538.5" y="-8.2" font-family="sans-serif" font-size="14.00">dependencies</text>
<g id="clust1" class="cluster">
<title>cluster_PatientsModule</title>
<polygon fill="none" stroke="black" stroke-dasharray="1,5" points="8,-32.8 8,-157.8 1069,-157.8 1069,-32.8 8,-32.8"/>
</g>
<g id="clust3" class="cluster">
<title>cluster_PatientsModule_imports</title>
<polygon fill="none" stroke="black" points="935,-40.8 935,-92.8 1061,-92.8 1061,-40.8 935,-40.8"/>
</g>
<g id="clust6" class="cluster">
<title>cluster_PatientsModule_providers</title>
<polygon fill="none" stroke="black" points="16,-40.8 16,-92.8 927,-92.8 927,-40.8 16,-40.8"/>
</g>
<!-- DatabaseModule -->
<g id="node1" class="node">
<title>DatabaseModule</title>
<polygon fill="#8dd3c7" stroke="black" points="1053.35,-84.8 1050.35,-88.8 1029.35,-88.8 1026.35,-84.8 942.65,-84.8 942.65,-48.8 1053.35,-48.8 1053.35,-84.8"/>
<text text-anchor="middle" x="998" y="-62.6" font-family="Times,serif" font-size="14.00">DatabaseModule</text>
</g>
<!-- PatientsModule -->
<g id="node2" class="node">
<title>PatientsModule</title>
<polygon fill="#8dd3c7" stroke="black" points="642.88,-149.8 639.88,-153.8 618.88,-153.8 615.88,-149.8 539.12,-149.8 539.12,-113.8 642.88,-113.8 642.88,-149.8"/>
<text text-anchor="middle" x="591" y="-127.6" font-family="Times,serif" font-size="14.00">PatientsModule</text>
</g>
<!-- DatabaseModule&#45;&gt;PatientsModule -->
<g id="edge1" class="edge">
<title>DatabaseModule&#45;&gt;PatientsModule</title>
<path fill="none" stroke="black" d="M998,-85.08C998,-106.12 998,-137.8 998,-137.8 998,-137.8 652.96,-137.8 652.96,-137.8"/>
<polygon fill="black" stroke="black" points="652.96,-134.3 642.96,-137.8 652.96,-141.3 652.96,-134.3"/>
</g>
<!-- PatientRepository -->
<g id="node3" class="node">
<title>PatientRepository</title>
<ellipse fill="#fdb462" stroke="black" cx="839" cy="-66.8" rx="80.47" ry="18"/>
<text text-anchor="middle" x="839" y="-62.6" font-family="Times,serif" font-size="14.00">PatientRepository</text>
</g>
<!-- PatientRepository&#45;&gt;PatientsModule -->
<g id="edge2" class="edge">
<title>PatientRepository&#45;&gt;PatientsModule</title>
<path fill="none" stroke="black" d="M839,-84.82C839,-102.17 839,-125.8 839,-125.8 839,-125.8 652.99,-125.8 652.99,-125.8"/>
<polygon fill="black" stroke="black" points="652.99,-122.3 642.99,-125.8 652.99,-129.3 652.99,-122.3"/>
</g>
<!-- PatientSagas -->
<g id="node4" class="node">
<title>PatientSagas</title>
<ellipse fill="#fdb462" stroke="black" cx="680" cy="-66.8" rx="60.27" ry="18"/>
<text text-anchor="middle" x="680" y="-62.6" font-family="Times,serif" font-size="14.00">PatientSagas</text>
</g>
<!-- PatientSagas&#45;&gt;PatientsModule -->
<g id="edge3" class="edge">
<title>PatientSagas&#45;&gt;PatientsModule</title>
<path fill="none" stroke="black" d="M631.28,-77.53C631.28,-77.53 631.28,-103.67 631.28,-103.67"/>
<polygon fill="black" stroke="black" points="627.78,-103.67 631.28,-113.67 634.78,-103.67 627.78,-103.67"/>
</g>
<!-- PatientViewConsumer -->
<g id="node5" class="node">
<title>PatientViewConsumer</title>
<ellipse fill="#fdb462" stroke="black" cx="503" cy="-66.8" rx="98.43" ry="18"/>
<text text-anchor="middle" x="503" y="-62.6" font-family="Times,serif" font-size="14.00">PatientViewConsumer</text>
</g>
<!-- PatientViewConsumer&#45;&gt;PatientsModule -->
<g id="edge4" class="edge">
<title>PatientViewConsumer&#45;&gt;PatientsModule</title>
<path fill="none" stroke="black" d="M570.26,-79.95C570.26,-79.95 570.26,-103.49 570.26,-103.49"/>
<polygon fill="black" stroke="black" points="566.76,-103.49 570.26,-113.49 573.76,-103.49 566.76,-103.49"/>
</g>
<!-- PatientViewRepository -->
<g id="node6" class="node">
<title>PatientViewRepository</title>
<ellipse fill="#fdb462" stroke="black" cx="285" cy="-66.8" rx="101.3" ry="18"/>
<text text-anchor="middle" x="285" y="-62.6" font-family="Times,serif" font-size="14.00">PatientViewRepository</text>
</g>
<!-- PatientViewRepository&#45;&gt;PatientsModule -->
<g id="edge5" class="edge">
<title>PatientViewRepository&#45;&gt;PatientsModule</title>
<path fill="none" stroke="black" d="M285,-84.82C285,-102.17 285,-125.8 285,-125.8 285,-125.8 529.09,-125.8 529.09,-125.8"/>
<polygon fill="black" stroke="black" points="529.09,-129.3 539.09,-125.8 529.09,-122.3 529.09,-129.3"/>
</g>
<!-- PatientsService -->
<g id="node7" class="node">
<title>PatientsService</title>
<ellipse fill="#fdb462" stroke="black" cx="95" cy="-66.8" rx="70.64" ry="18"/>
<text text-anchor="middle" x="95" y="-62.6" font-family="Times,serif" font-size="14.00">PatientsService</text>
</g>
<!-- PatientsService&#45;&gt;PatientsModule -->
<g id="edge6" class="edge">
<title>PatientsService&#45;&gt;PatientsModule</title>
<path fill="none" stroke="black" d="M95,-85.08C95,-106.12 95,-137.8 95,-137.8 95,-137.8 528.86,-137.8 528.86,-137.8"/>
<polygon fill="black" stroke="black" points="528.86,-141.3 538.86,-137.8 528.86,-134.3 528.86,-141.3"/>
</g>
</g>
</svg>
