<?xml version="1.0" encoding="UTF-8" standalone="no"?>
<!DOCTYPE svg PUBLIC "-//W3C//DTD SVG 1.1//EN"
 "http://www.w3.org/Graphics/SVG/1.1/DTD/svg11.dtd">
<!-- Generated by graphviz version 2.47.3 (20210619.1520)
 -->
<!-- Title: dependencies Pages: 1 -->
<svg width="363pt" height="247pt"
 viewBox="0.00 0.00 363.00 246.80" xmlns="http://www.w3.org/2000/svg" xmlns:xlink="http://www.w3.org/1999/xlink">
<g id="graph0" class="graph" transform="scale(1 1) rotate(0) translate(4 242.8)">
<title>dependencies</title>
<polygon fill="white" stroke="transparent" points="-4,4 -4,-242.8 359,-242.8 359,4 -4,4"/>
<text text-anchor="middle" x="177.5" y="-8.2" font-family="sans-serif" font-size="14.00">dependencies</text>
<g id="clust1" class="cluster">
<title>cluster_DatabaseModule</title>
<polygon fill="none" stroke="black" stroke-dasharray="1,5" points="8,-32.8 8,-230.8 347,-230.8 347,-32.8 8,-32.8"/>
</g>
<g id="clust4" class="cluster">
<title>cluster_DatabaseModule_exports</title>
<polygon fill="none" stroke="black" points="40,-170.8 40,-222.8 290,-222.8 290,-170.8 40,-170.8"/>
</g>
<g id="clust6" class="cluster">
<title>cluster_DatabaseModule_providers</title>
<polygon fill="none" stroke="black" points="16,-40.8 16,-92.8 339,-92.8 339,-40.8 16,-40.8"/>
</g>
<!-- KafkaService  -->
<g id="node1" class="node">
<title>KafkaService </title>
<polygon fill="#fb8072" stroke="black" points="281.67,-214.8 186.33,-214.8 186.33,-178.8 281.67,-178.8 281.67,-214.8"/>
<text text-anchor="middle" x="234" y="-192.6" font-family="Times,serif" font-size="14.00">KafkaService </text>
</g>
<!-- MongooseService  -->
<g id="node2" class="node">
<title>MongooseService </title>
<polygon fill="#fb8072" stroke="black" points="168.08,-214.8 47.92,-214.8 47.92,-178.8 168.08,-178.8 168.08,-214.8"/>
<text text-anchor="middle" x="108" y="-192.6" font-family="Times,serif" font-size="14.00">MongooseService </text>
</g>
<!-- DatabaseModule -->
<g id="node3" class="node">
<title>DatabaseModule</title>
<polygon fill="#8dd3c7" stroke="black" points="186.35,-149.8 183.35,-153.8 162.35,-153.8 159.35,-149.8 75.65,-149.8 75.65,-113.8 186.35,-113.8 186.35,-149.8"/>
<text text-anchor="middle" x="131" y="-127.6" font-family="Times,serif" font-size="14.00">DatabaseModule</text>
</g>
<!-- DatabaseModule&#45;&gt;KafkaService  -->
<g id="edge1" class="edge">
<title>DatabaseModule&#45;&gt;KafkaService </title>
<path fill="none" stroke="black" stroke-dasharray="5,2" d="M177.23,-149.91C177.23,-169.14 177.23,-196.8 177.23,-196.8 177.23,-196.8 178.11,-196.8 178.11,-196.8"/>
<polygon fill="black" stroke="black" points="176.1,-200.3 186.1,-196.8 176.1,-193.3 176.1,-200.3"/>
</g>
<!-- DatabaseModule&#45;&gt;MongooseService  -->
<g id="edge2" class="edge">
<title>DatabaseModule&#45;&gt;MongooseService </title>
<path fill="none" stroke="black" stroke-dasharray="5,2" d="M121.93,-149.91C121.93,-149.91 121.93,-168.79 121.93,-168.79"/>
<polygon fill="black" stroke="black" points="118.43,-168.79 121.93,-178.79 125.43,-168.79 118.43,-168.79"/>
</g>
<!-- KafkaService -->
<g id="node4" class="node">
<title>KafkaService</title>
<ellipse fill="#fdb462" stroke="black" cx="267" cy="-66.8" rx="63.66" ry="18"/>
<text text-anchor="middle" x="267" y="-62.6" font-family="Times,serif" font-size="14.00">KafkaService</text>
</g>
<!-- KafkaService&#45;&gt;DatabaseModule -->
<g id="edge3" class="edge">
<title>KafkaService&#45;&gt;DatabaseModule</title>
<path fill="none" stroke="black" d="M242.63,-83.54C242.63,-102.8 242.63,-131.8 242.63,-131.8 242.63,-131.8 196.49,-131.8 196.49,-131.8"/>
<polygon fill="black" stroke="black" points="196.49,-128.3 186.49,-131.8 196.49,-135.3 196.49,-128.3"/>
</g>
<!-- MongooseService -->
<g id="node5" class="node">
<title>MongooseService</title>
<ellipse fill="#fdb462" stroke="black" cx="105" cy="-66.8" rx="80.52" ry="18"/>
<text text-anchor="middle" x="105" y="-62.6" font-family="Times,serif" font-size="14.00">MongooseService</text>
</g>
<!-- MongooseService&#45;&gt;DatabaseModule -->
<g id="edge4" class="edge">
<title>MongooseService&#45;&gt;DatabaseModule</title>
<path fill="none" stroke="black" d="M130.67,-83.88C130.67,-83.88 130.67,-103.7 130.67,-103.7"/>
<polygon fill="black" stroke="black" points="127.17,-103.7 130.67,-113.7 134.17,-103.7 127.17,-103.7"/>
</g>
</g>
</svg>
