<?xml version="1.0" encoding="UTF-8" standalone="no"?>
<!DOCTYPE svg PUBLIC "-//W3C//DTD SVG 1.1//EN"
 "http://www.w3.org/Graphics/SVG/1.1/DTD/svg11.dtd">
<!-- Generated by graphviz version 2.47.3 (20210619.1520)
 -->
<!-- Title: dependencies Pages: 1 -->
<svg width="1298pt" height="318pt"
 viewBox="0.00 0.00 1298.00 317.80" xmlns="http://www.w3.org/2000/svg" xmlns:xlink="http://www.w3.org/1999/xlink">
<g id="graph0" class="graph" transform="scale(1 1) rotate(0) translate(4 313.8)">
<title>dependencies</title>
<polygon fill="white" stroke="transparent" points="-4,4 -4,-313.8 1294,-313.8 1294,4 -4,4"/>
<text text-anchor="middle" x="645" y="-8.2" font-family="sans-serif" font-size="14.00">dependencies</text>
<g id="clust1" class="cluster">
<title>cluster_AppModule</title>
<polygon fill="none" stroke="black" stroke-dasharray="1,5" points="673,-176.8 673,-301.8 809,-301.8 809,-176.8 673,-176.8"/>
</g>
<g id="clust3" class="cluster">
<title>cluster_AppModule_imports</title>
<polygon fill="none" stroke="black" points="681,-184.8 681,-236.8 801,-236.8 801,-184.8 681,-184.8"/>
</g>
<g id="clust7" class="cluster">
<title>cluster_DatabaseModule</title>
<polygon fill="none" stroke="black" stroke-dasharray="1,5" points="8,-32.8 8,-244.8 347,-244.8 347,-32.8 8,-32.8"/>
</g>
<g id="clust10" class="cluster">
<title>cluster_DatabaseModule_exports</title>
<polygon fill="none" stroke="black" points="81,-184.8 81,-236.8 331,-236.8 331,-184.8 81,-184.8"/>
</g>
<g id="clust12" class="cluster">
<title>cluster_DatabaseModule_providers</title>
<polygon fill="none" stroke="black" points="16,-40.8 16,-92.8 339,-92.8 339,-40.8 16,-40.8"/>
</g>
<g id="clust13" class="cluster">
<title>cluster_PatientsModule</title>
<polygon fill="none" stroke="black" stroke-dasharray="1,5" points="355,-100.8 355,-168.8 1282,-168.8 1282,-100.8 355,-100.8"/>
</g>
<g id="clust18" class="cluster">
<title>cluster_PatientsModule_providers</title>
<polygon fill="none" stroke="black" points="363,-108.8 363,-160.8 1274,-160.8 1274,-108.8 363,-108.8"/>
</g>
<!-- PatientsModule -->
<g id="node1" class="node">
<title>PatientsModule</title>
<polygon fill="#8dd3c7" stroke="black" points="792.88,-228.8 789.88,-232.8 768.88,-232.8 765.88,-228.8 689.12,-228.8 689.12,-192.8 792.88,-192.8 792.88,-228.8"/>
<text text-anchor="middle" x="741" y="-206.6" font-family="Times,serif" font-size="14.00">PatientsModule</text>
</g>
<!-- AppModule -->
<g id="node2" class="node">
<title>AppModule</title>
<polygon fill="#8dd3c7" stroke="black" points="782.66,-293.8 779.66,-297.8 758.66,-297.8 755.66,-293.8 699.34,-293.8 699.34,-257.8 782.66,-257.8 782.66,-293.8"/>
<text text-anchor="middle" x="741" y="-271.6" font-family="Times,serif" font-size="14.00">AppModule</text>
</g>
<!-- PatientsModule&#45;&gt;AppModule -->
<g id="edge1" class="edge">
<title>PatientsModule&#45;&gt;AppModule</title>
<path fill="none" stroke="black" d="M741,-228.91C741,-228.91 741,-247.79 741,-247.79"/>
<polygon fill="black" stroke="black" points="737.5,-247.79 741,-257.79 744.5,-247.79 737.5,-247.79"/>
</g>
<!-- KafkaService  -->
<g id="node3" class="node">
<title>KafkaService </title>
<polygon fill="#fb8072" stroke="black" points="322.67,-228.8 227.33,-228.8 227.33,-192.8 322.67,-192.8 322.67,-228.8"/>
<text text-anchor="middle" x="275" y="-206.6" font-family="Times,serif" font-size="14.00">KafkaService </text>
</g>
<!-- MongooseService  -->
<g id="node4" class="node">
<title>MongooseService </title>
<polygon fill="#fb8072" stroke="black" points="209.08,-228.8 88.92,-228.8 88.92,-192.8 209.08,-192.8 209.08,-228.8"/>
<text text-anchor="middle" x="149" y="-206.6" font-family="Times,serif" font-size="14.00">MongooseService </text>
</g>
<!-- DatabaseModule -->
<g id="node5" class="node">
<title>DatabaseModule</title>
<polygon fill="#8dd3c7" stroke="black" points="322.35,-152.8 319.35,-156.8 298.35,-156.8 295.35,-152.8 211.65,-152.8 211.65,-116.8 322.35,-116.8 322.35,-152.8"/>
<text text-anchor="middle" x="267" y="-130.6" font-family="Times,serif" font-size="14.00">DatabaseModule</text>
</g>
<!-- DatabaseModule&#45;&gt;PatientsModule -->
<g id="edge6" class="edge">
<title>DatabaseModule&#45;&gt;PatientsModule</title>
<path fill="none" stroke="black" d="M322.41,-134.8C325.1,-134.8 326.71,-134.8 326.71,-134.8 326.71,-134.8 326.71,-216.8 326.71,-216.8 326.71,-216.8 678.95,-216.8 678.95,-216.8"/>
<polygon fill="black" stroke="black" points="678.95,-220.3 688.95,-216.8 678.95,-213.3 678.95,-220.3"/>
</g>
<!-- DatabaseModule&#45;&gt;KafkaService  -->
<g id="edge2" class="edge">
<title>DatabaseModule&#45;&gt;KafkaService </title>
<path fill="none" stroke="black" stroke-dasharray="5,2" d="M274.79,-152.81C274.79,-152.81 274.79,-182.65 274.79,-182.65"/>
<polygon fill="black" stroke="black" points="271.29,-182.65 274.79,-192.65 278.29,-182.65 271.29,-182.65"/>
</g>
<!-- DatabaseModule&#45;&gt;MongooseService  -->
<g id="edge3" class="edge">
<title>DatabaseModule&#45;&gt;MongooseService </title>
<path fill="none" stroke="black" stroke-dasharray="5,2" d="M219.37,-152.81C219.37,-175.29 219.37,-210.8 219.37,-210.8 219.37,-210.8 218.36,-210.8 218.36,-210.8"/>
<polygon fill="black" stroke="black" points="219.29,-207.3 209.29,-210.8 219.29,-214.3 219.29,-207.3"/>
</g>
<!-- KafkaService -->
<g id="node6" class="node">
<title>KafkaService</title>
<ellipse fill="#fdb462" stroke="black" cx="267" cy="-66.8" rx="63.66" ry="18"/>
<text text-anchor="middle" x="267" y="-62.6" font-family="Times,serif" font-size="14.00">KafkaService</text>
</g>
<!-- KafkaService&#45;&gt;DatabaseModule -->
<g id="edge4" class="edge">
<title>KafkaService&#45;&gt;DatabaseModule</title>
<path fill="none" stroke="black" d="M267,-85.02C267,-85.02 267,-106.53 267,-106.53"/>
<polygon fill="black" stroke="black" points="263.5,-106.53 267,-116.53 270.5,-106.53 263.5,-106.53"/>
</g>
<!-- MongooseService -->
<g id="node7" class="node">
<title>MongooseService</title>
<ellipse fill="#fdb462" stroke="black" cx="105" cy="-66.8" rx="80.52" ry="18"/>
<text text-anchor="middle" x="105" y="-62.6" font-family="Times,serif" font-size="14.00">MongooseService</text>
</g>
<!-- MongooseService&#45;&gt;DatabaseModule -->
<g id="edge5" class="edge">
<title>MongooseService&#45;&gt;DatabaseModule</title>
<path fill="none" stroke="black" d="M137.23,-83.61C137.23,-103.75 137.23,-134.8 137.23,-134.8 137.23,-134.8 201.59,-134.8 201.59,-134.8"/>
<polygon fill="black" stroke="black" points="201.59,-138.3 211.59,-134.8 201.59,-131.3 201.59,-138.3"/>
</g>
<!-- PatientRepository -->
<g id="node8" class="node">
<title>PatientRepository</title>
<ellipse fill="#fdb462" stroke="black" cx="1186" cy="-134.8" rx="80.47" ry="18"/>
<text text-anchor="middle" x="1186" y="-130.6" font-family="Times,serif" font-size="14.00">PatientRepository</text>
</g>
<!-- PatientRepository&#45;&gt;PatientsModule -->
<g id="edge7" class="edge">
<title>PatientRepository&#45;&gt;PatientsModule</title>
<path fill="none" stroke="black" d="M1186,-153C1186,-177.16 1186,-216.8 1186,-216.8 1186,-216.8 802.92,-216.8 802.92,-216.8"/>
<polygon fill="black" stroke="black" points="802.92,-213.3 792.92,-216.8 802.92,-220.3 802.92,-213.3"/>
</g>
<!-- PatientSagas -->
<g id="node9" class="node">
<title>PatientSagas</title>
<ellipse fill="#fdb462" stroke="black" cx="1027" cy="-134.8" rx="60.27" ry="18"/>
<text text-anchor="middle" x="1027" y="-130.6" font-family="Times,serif" font-size="14.00">PatientSagas</text>
</g>
<!-- PatientSagas&#45;&gt;PatientsModule -->
<g id="edge8" class="edge">
<title>PatientSagas&#45;&gt;PatientsModule</title>
<path fill="none" stroke="black" d="M1027,-152.83C1027,-173.57 1027,-204.8 1027,-204.8 1027,-204.8 803.12,-204.8 803.12,-204.8"/>
<polygon fill="black" stroke="black" points="803.12,-201.3 793.12,-204.8 803.12,-208.3 803.12,-201.3"/>
</g>
<!-- PatientViewConsumer -->
<g id="node10" class="node">
<title>PatientViewConsumer</title>
<ellipse fill="#fdb462" stroke="black" cx="850" cy="-134.8" rx="98.43" ry="18"/>
<text text-anchor="middle" x="850" y="-130.6" font-family="Times,serif" font-size="14.00">PatientViewConsumer</text>
</g>
<!-- PatientViewConsumer&#45;&gt;PatientsModule -->
<g id="edge9" class="edge">
<title>PatientViewConsumer&#45;&gt;PatientsModule</title>
<path fill="none" stroke="black" d="M772.24,-146.01C772.24,-146.01 772.24,-182.76 772.24,-182.76"/>
<polygon fill="black" stroke="black" points="768.74,-182.76 772.24,-192.76 775.74,-182.76 768.74,-182.76"/>
</g>
<!-- PatientViewRepository -->
<g id="node11" class="node">
<title>PatientViewRepository</title>
<ellipse fill="#fdb462" stroke="black" cx="632" cy="-134.8" rx="101.3" ry="18"/>
<text text-anchor="middle" x="632" y="-130.6" font-family="Times,serif" font-size="14.00">PatientViewRepository</text>
</g>
<!-- PatientViewRepository&#45;&gt;PatientsModule -->
<g id="edge10" class="edge">
<title>PatientViewRepository&#45;&gt;PatientsModule</title>
<path fill="none" stroke="black" d="M711.11,-146.34C711.11,-146.34 711.11,-182.63 711.11,-182.63"/>
<polygon fill="black" stroke="black" points="707.61,-182.63 711.11,-192.63 714.61,-182.63 707.61,-182.63"/>
</g>
<!-- PatientsService -->
<g id="node12" class="node">
<title>PatientsService</title>
<ellipse fill="#fdb462" stroke="black" cx="442" cy="-134.8" rx="70.64" ry="18"/>
<text text-anchor="middle" x="442" y="-130.6" font-family="Times,serif" font-size="14.00">PatientsService</text>
</g>
<!-- PatientsService&#45;&gt;PatientsModule -->
<g id="edge11" class="edge">
<title>PatientsService&#45;&gt;PatientsModule</title>
<path fill="none" stroke="black" d="M442,-152.83C442,-173.57 442,-204.8 442,-204.8 442,-204.8 678.92,-204.8 678.92,-204.8"/>
<polygon fill="black" stroke="black" points="678.92,-208.3 688.92,-204.8 678.92,-201.3 678.92,-208.3"/>
</g>
</g>
</svg>
